<?xml version="1.0" encoding="utf-8"?>
<!-- Generator: Adobe Illustrator 23.1.1, SVG Export Plug-In . SVG Version: 6.00 Build 0)  -->
<svg version="1.1" id="Ebene_1" xmlns="http://www.w3.org/2000/svg" xmlns:xlink="http://www.w3.org/1999/xlink" x="0px" y="0px"
	 viewBox="0 0 70.4 40" style="enable-background:new 0 0 70.4 40;" xml:space="preserve">
<style type="text/css">
	.st0{fill:#FFFFFF;}
</style>
<g>
	<path class="st0" d="M43.3,6.9c-1.2-1.2-3.1-3.1-4.2-4.2l-1.8-1.8c-1.2-1.2-3.1-1.2-4.2,0l-1.8,1.8c-1.2,1.2-3.1,3.1-4.2,4.2
		L0.9,33c-1.2,1.2-1.2,3.1,0,4.2l1.8,1.8c1.2,1.2,3.1,1.2,4.2,0L33,12.9c1.2-1.2,3.1-1.2,4.2,0l26.2,26.2c1.2,1.2,3.1,1.2,4.2,0
		l1.8-1.8c1.2-1.2,1.2-3.1,0-4.2L43.3,6.9z"/>
</g>
</svg>
