<?xml version="1.0" encoding="utf-8"?>
<!-- Generator: Adobe Illustrator 23.1.1, SVG Export Plug-In . SVG Version: 6.00 Build 0)  -->
<svg version="1.1" id="Ebene_1" xmlns="http://www.w3.org/2000/svg" xmlns:xlink="http://www.w3.org/1999/xlink" x="0px" y="0px"
	 viewBox="0 0 70.4 40" style="enable-background:new 0 0 70.4 40;" xml:space="preserve">
<style type="text/css">
	.st0{fill:#FFFFFF;}
</style>
<g>
	<path class="st0" d="M27.1,33.1c1.2,1.2,3.1,3.1,4.2,4.2l1.8,1.8c1.2,1.2,3.1,1.2,4.2,0l1.8-1.8c1.2-1.2,3.1-3.1,4.2-4.2L69.5,6.9
		c1.2-1.2,1.2-3.1,0-4.2l-1.8-1.8c-1.2-1.2-3.1-1.2-4.2,0L37.3,27.1c-1.2,1.2-3.1,1.2-4.2,0L6.9,0.9c-1.2-1.2-3.1-1.2-4.2,0L0.9,2.7
		c-1.2,1.2-1.2,3.1,0,4.2L27.1,33.1z"/>
</g>
</svg>
